<svg class="svgOrigin" xmlns="http://www.w3.org/2000/svg" width="600" height="400" x="0px" y="0px" viewBox="0 0 600 400" enable-background="new 0 0 600 400">
<g>
	<rect y="0.00291" fill="#0084B5" width="600" height="399.994171"/>
	<path fill="#FFFFFF" d="M333.748993,126.140106c-0.723602-1.117203-4.264587-4.432602-3.580994-5.627899
		c0.683594-1.192902,2.559479-3.40921,2.729492-5.116203c0.169891-1.704597,5.627899-0.339798,6.821289-0.511696
		c1.193298-0.169899,3.579102-2.386307,5.286102-0.851097c1.707001,1.534698,4.604523,9.378899,6.139618,9.378899
		c1.535187,0,6.479492,5.457993,7.674805,9.379395c1.194397,3.922897,4.436584,9.550797,6.310577,10.574203
		c1.875,1.022995-0.855499,8.355499-1.706085,10.402405c-0.851501,2.046387-0.509705,6.480881-1.363312,5.457993
		c-0.853485-1.023499-1.875-5.116196-3.580994-5.797897c-1.707001-0.683594-5.456116-3.069794-6.651398-4.604507
		c-1.195313-1.535095-5.288086-2.216797-5.799805-3.069794c-0.511688-0.8535-0.851501-6.139603-2.386688-6.139603
		c-1.53421,0-1.194305,2.216309-0.852509,2.897903c0.341797,0.683594,2.385712,4.604492,3.750916,4.946304
		c1.365295,0.341797,3.581085,2.55809,3.581085,3.751495c0,1.194794-2.044006,2.046295-0.851593,4.092697
		c1.19339,2.046402,4.605499,4.776398,4.605499,6.823303c0,2.046402-2.046906,6.648895-2.900421,6.820801
		c-0.853485,0.169891-3.922791,1.534592-5.11618,2.727997c-1.19339,1.195297-1.365204,8.016098-0.853516,8.869598
		c0.511719,0.851105,4.606415,6.479004,3.752899,7.844299c-0.852478,1.3647-10.576202,5.627899-11.426697,6.309097
		c-0.851593,0.683502-1.707092,7.674301-0.51178,9.551193c1.194397,1.877014,5.97168,2.389709,5.288086,3.241211
		c-0.683594,0.851608-2.728485,4.946304-3.070313,6.309601c-0.341797,1.363297-0.171875,5.286102-1.195282,5.286102
		c-1.022491,0,1.025391,3.752991,2.218689,5.457993c1.19342,1.705093,0.170013,8.525406,0.170013,10.060608
		c0,1.535095-5.288116,7.676697-6.993195,8.358398c-1.704102,0.680695-12.448212,3.920898-14.495117,3.409195
		s-5.286102-2.044998-5.286102-4.432602c0-2.388702-0.341797-9.548889-2.387695-10.232498
		c-2.046906-0.683594-13.644592-0.169891-16.544495-1.535095c-2.897888-1.365295-4.946289-4.944397-6.820801-6.821304
		c-1.876892-1.875992-0.169891-10.232391,2.899902-10.744202c3.069885-0.511688,3.920898-4.264587,3.751007-5.457993
		c-0.169922-1.192307,3.069794-1.704102,2.558075-3.7509c-0.511688-2.048904-3.411072-4.434601-3.580994-5.969803
		c-0.169983-1.534592-2.558197-1.022903-4.263184-1.022903c-1.706604,0-7.334503-1.365189-8.35791-2.899902
		c-1.02298-1.535187-7.332611-6.821289-9.890686-7.844299c-2.558105-1.023392-2.558105,4.434601-4.092712,4.604507
		c-1.535187,0.169998-4.263214-1.195297-4.263214-2.729904c0-1.534698,0.851501-5.4561-0.683075-5.4561
		c-1.535217,0-4.605011,1.535202-4.263214,2.558105c0.341797,1.023392,7.334503,13.130402,6.993195,14.665497
		c-0.341797,1.534698,0.169403,8.697296,1.362701,11.085999c1.195404,2.387695,9.892609,8.183609,9.720795,12.448196
		c-0.082092,2.052704-12.108887,3.410202-16.030273,3.582001c-3.922913,0.171906-13.132309-3.23819-15.860413-5.455994
		c-2.727997-2.218796-6.990707-2.558594-8.355408-3.582001c-1.365295-1.022507-3.241684-5.288101-4.435089-5.288101
		c-1.192902,0-6.479004,3.753906-7.332504,3.242203c-0.8535-0.511795-4.946304-14.839401,0.339798-17.225601
		c5.288101-2.388199,9.722702-2.558105,10.916-3.581604c1.192902-1.022903,4.946304,3.239807,5.628006,2.046906
		c0.681107-1.195297,0.169891-6.141602,2.8974-8.869598c2.729996-2.727997,5.969803-4.946304,8.527893-6.651398
		c2.558105-1.704605,5.797821-2.899902,5.797821-4.092804c0-1.193298-0.68161-6.820801,3.069794-9.548798
		c3.753479-2.730011,6.650879-2.899902,7.504395-4.434998c0.853485-1.534698,3.921387-3.920898,5.627991-3.069901
		c1.70459,0.8535,4.774414,3.069901,6.820801,3.069901c2.046814,0,7.504791,0.34169,9.03949-1.02301
		c1.534698-1.365189,1.365204-3.581497,3.239807-3.581497c1.876404,0,7.162598,1.023392,9.039001,0
		c1.877014-1.023499,6.139709-3.239792,8.016602-3.239792c1.876007,0,0.509796,4.432587,2.7276,4.432587
		c2.218689,0,1.023407-4.092697,1.876892-4.432587c0.853516-0.341812,8.695313-2.046402,10.914093-2.046402
		c2.217804,0,3.40921,3.409698,5.62793,3.409698c2.217773,0,7.333984,6.310989,8.86908,6.822693
		c1.535217,0.51181,5.795898,0.169998,5.967804-0.8535c0.171906-1.022888-2.216797-7.332489-3.239197-7.844193
		c-1.023499-0.5112-4.095703-3.241196-3.923889-4.092804c0.171875-0.8535,1.707092-3.2397,0.853577-4.774399
		c-0.853577-1.535202-7.843781-8.699707-8.355499-10.574203c-0.511688-1.876999,0.1474-4.375,1.53421-4.604996
		c0.883789-0.147507,5.506805,2.220703,4.491211,1.093292C336.372986,130.541,335.859406,129.405807,333.748993,126.140106z"/>
	<path fill="#0084B5" d="M318.912079,204.93071c0.783203,0.335892-3.579071,2.385696-4.944275,2.557602
		c-1.365326,0.17189-4.436523,1.023392-5.288116,0.511688c-0.851593-0.511688,0.171906-2.897491,1.876892-2.897491
		C312.260681,205.102509,316.523407,203.907211,318.912079,204.93071z"/>
	<path fill="#0084B5" d="M286.507782,181.225601c-1.305176,0.522003-3.579102-2.899902-2.216278-3.069397
		C285.656708,177.986313,288.212891,180.542511,286.507782,181.225601z"/>
	<path fill="#0084B5" d="M341.253906,135.5215c0.251984,3.041504-3.40921-0.341797-3.581024-1.195297
		c-0.171875-0.851593,1.362305-3.239792,1.704132-2.728088C339.718781,132.109909,341.084015,133.474609,341.253906,135.5215z"/>
	<path fill="#FFFFFF" d="M316.865204,100.900909c-0.999023-0.275909-6.990204,1.362801-8.355408,1.362801
		c-1.365295,0-5.288116,2.046394-5.969788,2.046394c-0.68161,0-0.339813,2.558105,0.171875,2.558105
		c0.511719,0,2.898499-1.192902,3.751007-1.023003c0.853516,0.171898,1.023407,2.899902,2.558594,2.899902
		c1.535095,0-0.001984-3.2397,1.705109-3.581505C312.432587,104.821808,321.809601,102.26371,316.865204,100.900909z"/>
	<path fill="#FFFFFF" d="M286.337891,139.614304c0.497498,0.495605-1.192902,5.456009-2.388184,3.581497
		C282.042999,140.201706,285.656708,138.932602,286.337891,139.614304z"/>
	<path fill="#FFFFFF" d="M348.247101,228.125c-0.553711,1.825211-5.456116-4.776398-5.628021-6.992203
		c-0.171783-2.216797,3.069397-3.412094,3.751007-2.900391C347.051788,218.74411,349.953094,222.497101,348.247101,228.125z"/>
	<path fill="#0084B5" d="M303.733398,182.760712c0-2.320313,1.365204-4.776306-2.899902-7.674301
		c-0.703613-0.480011-2.899902-3.069809-4.605011-4.605011c-1.70459-1.534592,2.899902-3.06929,3.241699-3.922791
		c0.339905-0.8535,2.727997,1.70459,4.093323,1.3647c1.365173-0.341309,3.007782-0.331497,3.580994,0.169998
		c1.365295,1.193298,0.979492,3.447693,1.535187,4.093201c1.023407,1.192902,0.171906,4.604492-0.169891,5.116196
		c-0.341797,0.511795,2.555603,3.751007,2.386688,5.286209c-0.094696,0.849091-1.363281,2.727997-2.216797,2.55809
		c-0.853485-0.169891-2.218781-1.702698-2.388702-0.851593c-0.169891,0.851593-1.53418,4.093292-2.727478,4.093292
		c-1.19342,0-3.069824,3.40921-3.069824,3.920898c0,0.511703-1.365295,2.046402-2.72998,1.023392
		c-1.363312-1.023392-4.944397,0.853516-4.774414-0.511688c0.169891-1.362793,3.580994-1.023392,5.458008-2.558105
		c1.874481-1.534698,1.706482-4.093292,2.046387-5.116196C300.833496,184.123505,303.733398,184.6353,303.733398,182.760712z"/>
	<g>
		<path fill="#FFFFFF" d="M366.834991,241.769501c-10.402405,2.387711-26.262695,34.959991-26.262695,34.959991
			c3.922791,2.900421,24.8974,2.900421,31.208984,2.558624c6.311523-0.341827,17.565399-7.163116,20.634705-21.31842
			c-13.47168,8.185608-32.232391,10.574219-32.232391,10.574219S367.34668,254.899399,366.834991,241.769501z"/>
		<path fill="#FFFFFF" d="M381.350586,248.094711c0,0,4.172791-21.236313,1.516602-27.305603
			c-1.136688-1.137711-6.634796,0.758789-8.911102,9.860291c-2.276398,9.101608-8.912201,34.510818-8.912201,34.510818
			c35.270599-7.016602,41.526398-23.323318,40.768616-33.941513C401.451202,232.167999,381.350586,248.094711,381.350586,248.094711
			z"/>
		<path fill="#FFFFFF" d="M395.761688,220.031204c0,0-1.136688-17.445297-5.877899-25.219208
			c-4.360413-0.759796-5.498108,48.162613-5.498108,48.162613s14.032318-9.289108,20.099701-14.979507
			c6.067322-5.689392,12.325104-16.497101,9.481415-30.529297C409.036102,208.084,395.761688,220.031204,395.761688,220.031204z"/>
		<path fill="#FFFFFF" d="M389.694275,171.676804c-2.654266,11.947189,9.860413,41.337799,9.860413,41.337799
			c15.168915-20.291504,23.512695-33.5634,15.548798-51.766098c-7.205109,4.740295-11.945282,27.683594-11.945282,27.683594
			S400.881775,178.503906,389.694275,171.676804z"/>
		<path fill="#FFFFFF" d="M384.006805,145.320313c-2.654327,10.997589,19.151398,36.597198,19.151398,36.597198
			c10.998077-27.306198,8.341797-42.285202,0.567383-49.491699c-2.655304,1.8965-2.843811,26.548294-2.843811,26.548294
			S393.867188,150.440399,384.006805,145.320313z"/>
		<path fill="#FFFFFF" d="M371.871094,123.136208c1.139587,14.789604,27.304688,30.339897,27.304688,30.339897
			c3.980499-19.721695,0.189423-34.132797-11.75589-40.769997c3.413116,3.982895,3.790985,20.101006,3.790985,20.101006
			S378.885681,120.292503,371.871094,123.136208z"/>
		<path fill="#FFFFFF" d="M387.797882,126.359909c0-5.120201-6.635803-26.546402-24.081085-26.168503
			C369.974579,119.153305,387.797882,126.359909,387.797882,126.359909z"/>
		<path fill="#FFFFFF" d="M300,280.462891c0,0-9.363312-4.925781-16.014221-4.925781
			c-6.651276,0-55.25528,9.208984-55.25528,9.208984s9.892502,10.572296,25.752899,10.572296
			s33.425293-12.107483,33.425293-12.107483l-20.123108,16.712006l5.797913,3.580994
			C280.746094,297.364288,300,284.574188,300,284.574188s19.253906,12.7901,26.416992,18.929718l5.797791-3.580994
			l-20.123993-16.712006c0,0,17.565491,12.107483,33.425812,12.107483c15.860413,0,25.752899-10.572296,25.752899-10.572296
			s-48.604492-9.208984-55.254913-9.208984C309.363281,275.537109,300,280.462891,300,280.462891z"/>
		<path fill="#FFFFFF" d="M259.427704,276.729492c0,0-15.860306-32.572281-26.262711-34.959991
			c-0.511703,13.129898,6.650894,26.774414,6.650894,26.774414s-18.760193-2.388611-32.231888-10.574219
			c3.06929,14.155304,14.323196,20.976593,20.634796,21.31842C234.5298,279.629913,255.504898,279.629913,259.427704,276.729492z"/>
		<path fill="#FFFFFF" d="M226.044388,230.649399c-2.276291-9.101501-7.774384-10.998001-8.911591-9.860291
			c-2.656204,6.06929,1.516602,27.305603,1.516602,27.305603s-20.101105-15.926712-24.461899-16.876007
			c-0.757309,10.618195,5.498001,26.924911,40.768097,33.941513C234.955597,265.160217,228.320801,239.751007,226.044388,230.649399
			z"/>
		<path fill="#FFFFFF" d="M195.514603,227.995102c6.067398,5.690399,20.099197,14.979507,20.099197,14.979507
			s-1.137207-48.922409-5.498108-48.162613c-4.740204,7.773911-5.877396,25.219208-5.877396,25.219208
			s-13.274399-11.947205-18.204605-22.565399C183.189499,211.498001,189.447296,222.30571,195.514603,227.995102z"/>
		<path fill="#FFFFFF" d="M210.305695,171.676804c-11.1875,6.827103-13.463898,17.255295-13.463898,17.255295
			s-4.740707-22.943298-11.945297-27.683594c-7.964401,18.202698,0.379898,31.474594,15.548294,51.766098
			C200.444794,213.014603,212.960007,183.623993,210.305695,171.676804z"/>
		<path fill="#FFFFFF" d="M215.993698,145.320313c-9.860901,5.120087-16.875504,13.653793-16.875504,13.653793
			s-0.188004-24.651794-2.844299-26.548294c-7.773895,7.206497-10.430099,22.185501,0.567902,49.491699
			C196.841797,181.917511,218.647491,156.317902,215.993698,145.320313z"/>
		<path fill="#FFFFFF" d="M228.128891,123.136208c-7.015091-2.843704-19.339798,9.670906-19.339798,9.670906
			s0.377396-16.118111,3.791-20.101006c-11.945297,6.637199-15.736298,21.048302-11.755402,40.769997
			C200.824692,153.476105,226.9897,137.925812,228.128891,123.136208z"/>
		<path fill="#FFFFFF" d="M236.2827,100.191406c-17.445313-0.377899-24.080612,21.048302-24.080612,26.168503
			C212.202087,126.359909,230.025391,119.153305,236.2827,100.191406z"/>
		<path fill="#FFFFFF" d="M240.677689,239.417007c15.178711,15.178696,36.159195,24.570297,59.320297,24.570297
			c23.161194,0,44.141602-9.391602,59.320404-24.570297c15.178711-15.178696,24.574188-36.159195,24.574188-59.320297
			c0-23.1651-9.395477-44.145508-24.574188-59.324707c-15.178802-15.178696-36.15921-24.569893-59.320404-24.569893
			c-23.161102,0-44.141586,9.391197-59.320297,24.569893C225.498489,135.951202,216.1035,156.93161,216.1035,180.09671
			C216.1035,203.257813,225.498489,224.238312,240.677689,239.417007z M381.816376,181.117706
			c-0.268494,21.830505-9.067383,41.581497-23.239288,56.108902L348.55658,227.2061
			c11.603607-11.955093,18.82431-28.175293,19.091797-46.088394H381.816376z M298.974579,213.542007
			c-8.475586-0.267609-16.138184-3.661102-21.895996-9.079102l21.895996-21.895996V213.542007z M301.023407,182.570801
			l21.893585,21.892105c-5.759796,5.417999-13.419891,8.809601-21.893585,9.079102V182.570801z M301.023407,146.645004
			c8.473694,0.272003,16.135773,3.665497,21.893585,9.083496l-21.893585,21.894104V146.645004z M298.974579,177.626511
			l-21.895996-21.89801c5.757813-5.419891,13.42041-8.813507,21.895996-9.083496V177.626511z M297.525879,179.071304h-30.975098
			c0.271515-8.473602,3.663116-16.1362,9.079102-21.894104L297.525879,179.071304z M297.525879,181.117706l-21.895996,21.895996
			c-5.415985-5.757797-8.809601-13.419998-9.079102-21.895996H297.525879z M275.620087,205.923798
			c6.133301,5.792007,14.315399,9.411209,23.354492,9.669006v13.246094c-12.692383-0.282288-24.178192-5.387695-32.704071-13.566391
			L275.620087,205.923798z M301.023407,215.592804c9.039093-0.257797,17.218781-3.878906,23.3526-9.669006l9.349579,9.348709
			c-8.526398,8.178696-20.009796,13.282196-32.702179,13.566391V215.592804z M302.467804,181.117706h30.979492
			c-0.269592,8.475998-3.663116,16.138199-9.083008,21.897903L302.467804,181.117706z M302.469696,179.071304L324.36618,157.1772
			c5.417999,5.757904,8.811523,13.420502,9.081116,21.894104H302.469696z M324.376007,154.269501
			c-6.13382-5.791504-14.313507-9.413101-23.3526-9.670898v-13.248001c12.692383,0.283707,24.177795,5.389603,32.704071,13.567902
			L324.376007,154.269501z M298.974579,144.598602c-9.039093,0.257797-17.221191,3.879395-23.356873,9.670898l-9.349121-9.350998
			c8.527802-8.178299,20.013611-13.286194,32.705994-13.567902V144.598602z M274.170898,155.716309
			c-5.791504,6.135803-9.413116,14.315903-9.670898,23.354996h-13.246109c0.281708-12.690399,5.387711-24.1763,13.565903-32.704102
			L274.170898,155.716309z M264.5,181.117706c0.257782,9.041504,3.877014,17.223602,9.670898,23.356903l-9.349091,9.349594
			c-8.178223-8.528305-13.286209-20.013702-13.567917-32.706497H264.5z M264.805695,216.735397
			c8.903809,8.555603,20.910583,13.892502,34.168884,14.156204v14.800797
			c-17.345184-0.295898-33.037567-7.286194-44.615189-18.508789L264.805695,216.735397z M301.023407,230.891602
			c13.25589-0.265594,25.263672-5.602493,34.166992-14.154297l10.446289,10.446304
			c-11.576202,11.224594-27.268494,18.212891-44.613281,18.508789V230.891602z M325.825195,204.474609
			c5.791992-6.135208,9.413086-14.315399,9.672791-23.356903h13.244202c-0.281311,12.692795-5.387695,24.180191-13.56839,32.706497
			L325.825195,204.474609z M335.497986,179.071304c-0.259705-9.039093-3.880798-17.219193-9.672791-23.352997l9.350586-9.351105
			c8.178711,8.525909,13.285095,20.011703,13.566406,32.704102H335.497986z M335.192383,143.453613
			c-8.905304-8.553711-20.911102-13.888199-34.168976-14.15181v-14.807198
			c17.344788,0.297905,33.037079,7.288605,44.615295,18.512703L335.192383,143.453613z M298.974579,129.301804
			c-13.258301,0.261703-25.267578,5.598099-34.170898,14.153809l-10.446289-10.448303
			c11.577698-11.224098,27.272003-18.216805,44.617188-18.512703V129.301804z M263.356903,144.902313
			c-8.553711,8.903397-13.889603,20.91069-14.15181,34.168991h-14.805206c0.295914-17.3452,7.286606-33.037598,18.510712-44.615204
			L263.356903,144.902313z M249.205093,181.117706c0.262207,13.258301,5.598099,25.266098,14.15181,34.171402l-10.446304,10.446289
			c-11.224106-11.578186-18.214798-27.270096-18.510712-44.617691H249.205093z M252.886688,228.655304
			c11.957092,11.601501,28.177307,18.822205,46.087891,19.087906v14.171799
			c-21.825684-0.268494-41.581482-9.069305-56.106888-23.239212L252.886688,228.655304z M301.023407,247.74321
			c17.911194-0.267609,34.128876-7.486404,46.083984-19.087906l10.020508,10.020493
			c-14.525421,14.169907-34.27832,22.968704-56.104492,23.239212V247.74321z M347.087891,225.737305l-10.449188-10.448196
			c8.554688-8.905304,13.892578-20.913101,14.156189-34.171402h14.802795
			C365.30368,198.4673,358.311493,214.15921,347.087891,225.737305z M350.794891,179.071304
			c-0.263611-13.258301-5.601501-25.265594-14.156189-34.168991l10.449188-10.448212
			c11.223602,11.577606,18.21579,27.270004,18.509796,44.617203H350.794891z M347.109406,131.536102
			c-11.957123-11.601494-28.174805-18.822197-46.085999-19.087898V98.274406
			c21.826172,0.270004,41.581085,9.071304,56.106476,23.241203L347.109406,131.536102z M298.974579,112.448204
			c-17.912567,0.265701-34.132782,7.486404-46.087891,19.087898l-10.020996-10.020493
			c14.525391-14.169899,34.281311-22.973099,56.108887-23.241203V112.448204z M251.4375,132.985413
			c-11.601608,11.954987-18.820313,28.175186-19.087906,46.085892h-14.169403
			c0.269501-21.832001,9.071304-41.581604,23.236816-56.106895L251.4375,132.985413z M232.349594,181.117706
			c0.267593,17.913101,7.486298,34.133301,19.089905,46.088394L241.4189,237.226608
			c-14.167404-14.527405-22.9711-34.278397-23.238708-56.108902H232.349594z M381.816376,179.071304h-14.171875
			c-0.265625-17.910706-7.486298-34.130905-19.087921-46.085892l10.022522-10.021004
			C372.748993,137.4897,381.545898,157.239304,381.816376,179.071304z"/>
	</g>
</g>
</svg>
